HIERARCHY
ROOT Hips
{
	OFFSET 0.000000 0.000000 0.000000
	CHANNELS 6 Xposition Yposition Zposition Zrotation Yrotation Xrotation 
	JOINT LHipJoint
	{
		OFFSET 0.000000 0.000000 0.000000
		CHANNELS 3 Zrotation Yrotation Xrotation
		JOINT LeftUpLeg
		{
			OFFSET 1.363060 -1.794630 0.839290
			CHANNELS 3 Zrotation Yrotation Xrotation
			JOINT LeftLeg
			{
				OFFSET 2.448110 -6.726130 0.000000
				CHANNELS 3 Zrotation Yrotation Xrotation
				JOINT LeftFoot
				{
					OFFSET 2.562200 -7.039590 0.000000
					CHANNELS 3 Zrotation Yrotation Xrotation
					JOINT LeftToeBase
					{
						OFFSET 0.157640 -0.433110 2.322550
						CHANNELS 3 Zrotation Yrotation Xrotation
						End Site
						{
							OFFSET 0.000000 0.000000 0.000000
						}
					}
				}
			}
		}
	}
	JOINT RHipJoint
	{
		OFFSET 0.000000 0.000000 0.000000
		CHANNELS 3 Zrotation Yrotation Xrotation
		JOINT RightUpLeg
		{
			OFFSET -1.305520 -1.794630 0.839290
			CHANNELS 3 Zrotation Yrotation Xrotation
			JOINT RightLeg
			{
				OFFSET -2.542530 -6.985550 0.000000
				CHANNELS 3 Zrotation Yrotation Xrotation
				JOINT RightFoot
				{
					OFFSET -2.568260 -7.056230 0.000000
					CHANNELS 3 Zrotation Yrotation Xrotation
					JOINT RightToeBase
					{
						OFFSET -0.164730 -0.452590 2.363150
						CHANNELS 3 Zrotation Yrotation Xrotation
						End Site
						{
							OFFSET 0.000000 0.000000 0.000000
						}
					}
				}
			}
		}
	}
	JOINT LowerBack
	{
		OFFSET 0.000000 0.000000 0.000000
		CHANNELS 3 Zrotation Yrotation Xrotation
		JOINT Spine
		{
			OFFSET 0.028270 2.035590 -0.193380
			CHANNELS 3 Zrotation Yrotation Xrotation
			JOINT Spine1
			{
				OFFSET 0.056720 2.048850 -0.042750
				CHANNELS 3 Zrotation Yrotation Xrotation
				JOINT Neck
				{
					OFFSET 0.000000 0.000000 0.000000
					CHANNELS 3 Zrotation Yrotation Xrotation
					JOINT Neck1
					{
						OFFSET -0.054170 1.746240 0.172020
						CHANNELS 3 Zrotation Yrotation Xrotation
						JOINT Head
						{
							OFFSET 0.104070 1.761360 -0.123970
							CHANNELS 3 Zrotation Yrotation Xrotation
							End Site
							{
								OFFSET 0.000000 0.000000 0.000000
							}
						}
					}
				}
				JOINT LeftShoulder
				{
					OFFSET 0.000000 0.000000 0.000000
					CHANNELS 3 Zrotation Yrotation Xrotation
					JOINT LeftArm
					{
						OFFSET 3.362410 1.200890 -0.311210
						CHANNELS 3 Zrotation Yrotation Xrotation
						JOINT LeftForeArm
						{
							OFFSET 4.983000 -0.000000 -0.000000
							CHANNELS 3 Zrotation Yrotation Xrotation
							JOINT LeftHand
							{
								OFFSET 3.483560 -0.000000 -0.000000
								CHANNELS 3 Zrotation Yrotation Xrotation
								JOINT LeftFingerBase
								{
									OFFSET 0.000000 0.000000 0.000000
									CHANNELS 3 Zrotation Yrotation Xrotation
									JOINT LeftHandIndex1
									{
										OFFSET 0.715260 -0.000000 -0.000000
										CHANNELS 3 Zrotation Yrotation Xrotation
										End Site
										{
											OFFSET 0.000000 0.000000 0.000000
										}
									}
								}
								JOINT LThumb
								{
									OFFSET 0.000000 0.000000 0.000000
									CHANNELS 3 Zrotation Yrotation Xrotation
									End Site
									{
										OFFSET 0.000000 0.000000 0.000000
									}
								}
							}
						}
					}
				}
				JOINT RightShoulder
				{
					OFFSET 0.000000 0.000000 0.000000
					CHANNELS 3 Zrotation Yrotation Xrotation
					JOINT RightArm
					{
						OFFSET -3.136600 1.374050 -0.404650
						CHANNELS 3 Zrotation Yrotation Xrotation
						JOINT RightForeArm
						{
							OFFSET -5.241900 -0.000000 -0.000000
							CHANNELS 3 Zrotation Yrotation Xrotation
							JOINT RightHand
							{
								OFFSET -3.444170 -0.000000 -0.000000
								CHANNELS 3 Zrotation Yrotation Xrotation
								JOINT RightFingerBase
								{
									OFFSET 0.000000 0.000000 0.000000
									CHANNELS 3 Zrotation Yrotation Xrotation
									JOINT RightHandIndex1
									{
										OFFSET -0.622530 -0.000000 -0.000000
										CHANNELS 3 Zrotation Yrotation Xrotation
										End Site
										{
											OFFSET 0.000000 0.000000 0.000000
										}
									}
								}
								JOINT RThumb
								{
									OFFSET 0.000000 0.000000 0.000000
									CHANNELS 3 Zrotation Yrotation Xrotation
									End Site
									{
										OFFSET 0.000000 0.000000 0.000000
									}
								}
							}
						}
					}
				}
			}
		}
	}
}
MOTION
Frames: 8
Frame Time: 0.008333
9.866778 17.884453 49.737771 -175.948732 0.560533 179.098243 -0.222129 3.758149 2.074283 -14.068712 -23.050605 -3.497747 -2.173598 8.554100 24.349138 -5.731442 17.174058 -7.023562 2.122400 -9.116500 -26.160400 -3.184261 -3.509398 1.173321 24.916851 17.314498 -0.595347 2.567118 -6.728912 21.425254 5.597406 -20.255551 -11.795807 -0.078000 1.802100 -4.959000 3.781474 -0.647500 4.682622 4.760744 -0.559963 7.667723 -4.420085 -0.559537 -11.108009 -7.286792 -3.056462 -14.910314 9.612556 -6.759159 32.413768 1.357100 -2.993000 11.334600 -1.829486 -9.628707 1.040052 -90.856476 6.800082 27.572382 26.500433 -26.678181 -7.693873 1.522302 0.842223 13.224623 6.757347 -33.276595 -3.122600 -7.125000 0.000000 0.000000 -14.881600 -3.674100 16.351500 0.059025 11.951455 2.632169 86.309380 -6.313622 43.925821 -19.687135 22.288784 -5.288857 1.217597 0.028443 15.043677 -12.972482 -50.028911 10.934700 7.125000 0.000000 0.000000 54.815000 -75.414800 -41.785600 
9.866191 17.885276 49.747049 -176.337494 0.656824 178.942026 -0.293853 3.790031 2.134902 -14.430172 -23.031886 -3.179952 -2.264218 8.416661 24.006051 -5.498374 16.637988 -7.097965 1.727500 -8.273800 -23.548900 -3.214025 -3.514485 1.166893 24.570203 17.406649 -0.704304 2.469520 -6.899312 21.924873 5.496707 -19.946170 -11.909389 -0.081400 1.840100 -5.063900 3.623750 -0.531892 4.960880 4.193758 -0.385222 7.778980 -4.374595 -0.460956 -11.254201 -7.149575 -3.138489 -14.521030 9.553658 -6.924767 32.151580 1.291200 -3.074700 11.168400 -1.764322 -9.632943 1.050624 -90.545527 6.762338 27.904033 26.601892 -26.798402 -7.751771 1.529250 0.829356 12.914750 6.150478 -33.313732 -2.768000 -7.125000 0.000000 0.000000 -15.217000 -3.613400 16.731600 0.102730 11.925942 2.598926 86.511710 -6.241232 43.517591 -19.691034 22.299287 -5.275627 1.217200 0.027764 15.753420 -11.719332 -49.854653 9.929900 7.125000 0.000000 0.000000 55.296100 -74.870500 -41.653700 
9.865721 17.884453 49.751746 -176.674207 0.674151 178.773292 -0.340043 3.831666 2.172720 -14.808082 -23.082975 -2.837281 -2.335289 8.304110 23.699647 -5.525482 16.718956 -7.043567 1.673500 -8.150100 -23.170900 -3.226722 -3.528589 1.167217 24.264338 17.490320 -0.729856 2.394279 -7.026670 22.304436 5.481597 -19.897261 -12.056824 -0.091200 1.948100 -5.362200 3.366437 -0.530479 5.208579 3.894727 -0.376068 7.782726 -4.237741 -0.443964 -11.426835 -7.091012 -3.118386 -14.929701 9.445178 -6.982526 32.932538 1.270300 -3.120000 11.530100 -1.749960 -9.585880 1.055039 -90.490407 6.827582 27.860150 26.592375 -26.791608 -7.750332 1.522991 0.840363 12.918010 6.401759 -33.501766 -2.931200 -7.125000 0.000000 0.000000 -15.087400 -3.836800 16.634500 0.124261 11.949717 2.608131 86.573063 -6.317625 43.500387 -19.726773 22.347394 -5.283640 1.214968 0.026620 15.966085 -11.378150 -49.748898 9.648000 7.125000 0.000000 0.000000 55.241000 -74.694300 -41.430500 
9.862668 17.882457 49.752451 -177.022716 0.707408 178.614399 -0.387426 3.877868 2.223309 -15.199040 -23.083563 -2.467280 -2.422877 8.165823 23.324064 -5.583372 16.876808 -7.060574 1.597600 -7.972100 -22.629400 -3.241077 -3.539828 1.164585 23.946348 17.593353 -0.793144 2.303251 -7.187000 22.771372 5.476210 -19.891944 -12.276447 -0.101300 2.052600 -5.651200 3.114321 -0.527821 5.366942 3.607690 -0.372559 7.827260 -4.100029 -0.430163 -11.536682 -6.869231 -3.114210 -15.387992 9.113167 -7.008999 33.676123 1.146100 -3.158900 11.892600 -1.741532 -9.539724 1.053022 -90.457353 6.850720 27.800744 26.534494 -26.733244 -7.725687 1.520075 0.854127 12.993238 6.701804 -33.759221 -3.129400 -7.125000 0.000000 0.000000 -14.937200 -4.139100 16.531300 0.137525 11.981562 2.615786 86.578270 -6.355327 43.517849 -19.748145 22.374720 -5.281703 1.214435 0.024282 16.194502 -10.879509 -49.526257 9.230800 7.125000 0.000000 0.000000 54.946300 -74.404200 -40.890500 
9.857266 17.879991 49.759262 -177.409481 0.714739 178.492692 -0.438153 3.901616 2.253928 -15.624516 -23.078058 -2.186055 -2.493360 8.059820 23.032423 -5.614288 16.980380 -7.093024 1.609800 -8.001000 -22.717300 -3.252930 -3.549721 1.165888 23.537414 17.595420 -0.920319 2.228868 -7.306111 23.120003 5.451034 -19.792128 -12.353930 -0.110000 2.138500 -5.888600 2.886753 -0.513562 5.585038 3.267259 -0.352999 7.847645 -3.998948 -0.403837 -11.676231 -7.154296 -3.004510 -15.274026 9.438653 -6.966594 33.852212 1.319200 -3.146000 11.938700 -1.703549 -9.539934 1.062831 -90.357712 6.845989 27.932004 26.497153 -26.692779 -7.708010 1.504621 0.871582 13.026929 7.237026 -33.901703 -3.464500 -7.125000 0.000000 0.000000 -14.649800 -4.363200 16.245000 0.173775 11.964979 2.614916 86.552340 -6.352310 43.561463 -19.796956 22.444444 -5.309833 1.211064 0.031982 16.234413 -10.535045 -49.761629 8.991700 7.125000 0.000000 0.000000 56.004400 -74.393400 -41.772600 
9.852686 17.876702 49.769480 -178.152117 0.694370 178.130344 -0.498802 3.953422 2.308806 -16.520850 -23.092636 -1.643152 -2.559847 7.969097 22.803958 -5.599430 17.025064 -7.202168 1.613300 -8.009400 -22.742700 -3.272481 -3.601816 1.203001 22.801014 17.528679 -0.844349 2.143182 -7.391382 23.457813 5.418580 -19.626920 -12.436810 -0.109000 2.128500 -5.860900 2.325012 -0.516903 6.053591 2.714220 -0.376365 8.009173 -3.704861 -0.368976 -11.953242 -6.948108 -2.991380 -15.325599 9.240351 -6.969560 34.025529 1.231500 -3.161800 12.002600 -1.653731 -9.498718 1.056534 -90.288538 6.867974 28.069564 26.490282 -26.689259 -7.708061 1.490043 0.884977 13.015679 7.622660 -34.034309 -3.712000 -7.125000 0.000000 0.000000 -14.443800 -4.554800 16.046300 0.205257 11.964381 2.610259 86.551802 -6.343459 43.672816 -19.861399 22.553319 -5.360616 1.203382 0.044824 16.130449 -10.562651 -50.373123 9.084700 7.125000 0.000000 0.000000 58.006400 -74.684300 -43.779400 
9.848340 17.877524 49.766544 -178.062663 0.694869 178.135136 -0.511397 3.976783 2.333140 -16.410762 -23.094972 -1.544023 -2.599204 7.886695 22.571734 -5.658927 17.142142 -7.052814 1.768100 -8.365300 -23.829300 -3.287217 -3.591710 1.189029 22.903087 17.529072 -0.926423 2.102572 -7.483008 23.715760 5.332296 -19.444359 -12.678983 -0.088400 1.917600 -5.278100 2.513022 -0.497164 5.996322 2.628292 -0.328877 8.023373 -3.825245 -0.365167 -11.909892 -7.029301 -2.927374 -15.052011 9.435561 -6.975182 33.972975 1.308100 -3.160400 11.937900 -1.631308 -9.516973 1.058498 -90.237354 6.813628 27.990556 26.548109 -26.771210 -7.748998 1.517012 0.866223 12.604729 6.545262 -34.208279 -3.071900 -7.125000 0.000000 0.000000 -15.046400 -4.554500 16.762700 0.215148 11.950288 2.602025 86.645570 -6.343018 43.820738 -19.829921 22.520171 -5.370080 1.200505 0.040150 16.437806 -11.149721 -50.914802 9.613300 7.125000 0.000000 0.000000 59.412100 -75.133200 -45.461700 
9.845874 17.876937 49.766896 -178.198544 0.730299 178.152048 -0.535267 3.982556 2.341036 -16.528907 -23.019915 -1.505423 -2.625505 7.835862 22.398058 -5.811414 17.510850 -6.819996 2.198200 -9.267300 -26.635000 -3.296056 -3.584962 1.183966 22.742797 17.538386 -1.041947 2.071157 -7.544695 23.884892 5.335992 -19.472016 -12.840183 -0.093700 1.974100 -5.434000 2.459692 -0.482163 5.952071 2.433511 -0.308543 8.040919 -3.799312 -0.357284 -11.882811 -6.799980 -2.973857 -15.396563 9.202591 -7.069427 34.439610 1.198100 -3.211800 12.186400 -1.626879 -9.493907 1.055881 -90.175320 6.783652 28.063279 26.462671 -26.666389 -7.696963 1.484934 0.896079 13.090884 7.945036 -34.219421 -3.925000 -7.125000 0.000000 0.000000 -14.279700 -4.790700 15.906800 0.217678 11.974328 2.609051 86.702908 -6.353345 44.212469 -19.684633 22.349894 -5.347712 1.196801 0.013326 17.245196 -13.025739 -51.730158 11.215900 7.125000 0.000000 0.000000 61.050200 -76.155900 -47.964900 
